
<svg xmlns="http://www.w3.org/2000/svg" version="1.1" xmlns:xlink="http://www.w3.org/1999/xlink" preserveAspectRatio="none" x="0px" y="0px" width="294px" height="288px" viewBox="0 0 294 288">
<defs>
<g id="D_0_Layer0_0_FILL">
<path fill="#999999" stroke="none" d="
M 276.1 177.2
Q 257.9 159.65 232.25 159
L 232.25 282.9
Q 257.9 282.3 276.1 264.8 295.15 246.65 295.15 221 295.15 195.35 276.1 177.2 Z"/>

<path fill="#333333" stroke="none" d="
M 232.25 159
L 232.25 158.9 168.4 158.9 168.4 283.9 232.25 283.9 232.25 282.9 232.25 159 Z"/>
</g>

<g id="W_0_Layer0_0_FILL">
<path fill="#333333" stroke="none" d="
M 152.95 160.55
L 29.55 160.55 77.95 242.2 102.6 283.75 152.95 160.55 Z"/>

<path fill="#999999" stroke="none" d="
M 29.55 160.55
L 2.95 160.55 53.3 283.75 77.95 242.2 29.55 160.55 Z"/>
</g>

<g id="T_0_Layer0_0_FILL">
<path fill="#333333" stroke="none" d="
M 263.65 60
L 263.65 25 196.3 25 196.3 60 196.3 140.55 263.65 140.55 263.65 60 Z"/>

<path fill="#999999" stroke="none" d="
M 263.65 25
L 263.65 60 292.45 60 292.45 10 167.45 10 167.45 60 196.3 60 196.3 25 263.65 25 Z"/>
</g>

<g id="o_0_Layer0_0_FILL">
<path fill="#999999" stroke="none" d="
M 19.2 37.15
Q 9.05 53.1 9.05 73 9.05 101.55 29.85 121.75 50.6 142 80.05 142 109.45 142 130.2 121.75 132.95 119.1 135.3 116.35
L 19.2 37.15 Z"/>

<path fill="#333333" stroke="none" d="
M 151.05 73.75
Q 151.05 73.3 151.05 73 151.05 44.45 130.2 24.2 109.45 4 80.05 4 50.6 4 29.85 24.2 23.55 30.3 19.2 37.15
L 135.3 116.35
Q 135.55 116.05 135.75 115.75 148.55 100.5 150.65 80.95 150.7 80.25 150.8 79.6 150.8 79.45 150.8 79.3 150.8 79.1 150.85 78.9 150.85 78.75 150.85 78.55 150.85 78.35 150.9 78.2 150.9 78.05 150.9 77.85 150.9 77.55 150.95 77.35 150.95 77.15 150.95 76.95 150.95 76.8 151 76.6 151 76.4 151 76.15 151 75.95 151.05 75.8 151.05 75.6 151.05 75.45 151.05 75.2 151.05 75 151.05 74.85 151.05 74.7 151.05 74.45 151.05 74.25 151.05 74 151.05 73.75 Z"/>
</g>
</defs>

<g transform="matrix( 1, 0, 0, 1, 164.45,154.9) ">
<g transform="matrix( 1, 0, 0, 1, -168.4,-158.9) ">
<use xlink:href="#D_0_Layer0_0_FILL"/>
</g>
</g>

<g transform="matrix( 1, 0, 0, 1, 0,156.55) ">
<g transform="matrix( 1, 0, 0, 1, -2.95,-160.55) ">
<use xlink:href="#W_0_Layer0_0_FILL"/>
</g>
</g>

<g transform="matrix( 1, 0, 0, 1, 164.5,6) ">
<g transform="matrix( 1, 0, 0, 1, -167.45,-10) ">
<use xlink:href="#T_0_Layer0_0_FILL"/>
</g>
</g>

<g transform="matrix( 1, 0, 0, 1, 0.1,0) ">
<g transform="matrix( 1, 0, 0, 1, -9.05,-4) ">
<use xlink:href="#o_0_Layer0_0_FILL"/>
</g>
</g>
</svg>
