<svg xmlns="http://www.w3.org/2000/svg" version="1.1" xmlns:xlink="http://www.w3.org/1999/xlink" preserveAspectRatio="xMidYMid meet" width="100%" height="100%" viewBox="0 0 142 138">
  <defs>
    <g id="Layer3_0_FILL">
      <path fill="#E74C3C" stroke="none" d="
        M 19.8 43.25
        Q 9.95 58.25 9.95 77 9.95 103.9 30.15 122.95 50.35 142 78.95 142 107.5 142 127.7 122.95 130.35 120.45 132.65 117.85
        L 19.8 43.25 Z"
      />

      <path fill="#039FA8" stroke="none" d="
        M 147.95 78.2
        Q 147.95 77.95 147.95 77.7 147.95 77.3 147.95 77 147.95 50.1 127.7 31.05 107.5 12 78.95 12 50.35 12 30.15 31.05 24.05 36.8 19.8 43.25
        L 132.65 117.85
        Q 132.9 117.55 133.1 117.3 145.5 102.9 147.55 84.5 147.6 83.85 147.7 83.25 147.7 83.1 147.7 82.95 147.7 82.75 147.75 82.55 147.75 82.45 147.75 82.25 147.75 82.05 147.8 81.9 147.8 81.75 147.8 81.6 147.8 81.3 147.85 81.1 147.85 80.9 147.85 80.75 147.85 80.6 147.9 80.4 147.9 80.2 147.9 80 147.9 79.8 147.95 79.65 147.95 79.45 147.95 79.3 147.95 79.1 147.95 78.9 147.95 78.75 147.95 78.6 147.95 78.4 147.95 78.2 Z"
      />
    </g>
  </defs>

  <g transform="matrix( 1.0290985107421875, 0, 0, 1.0615081787109375, -10.25,-12.75) ">
    <use xlink:href="#Layer3_0_FILL"/>
  </g>
</svg>
